<svg xmlns="http://www.w3.org/2000/svg" viewBox="0 0 82.26 146.45"><defs><style>.cls-1{fill:none;stroke:#FFB703;stroke-linecap:round;stroke-linejoin:round;stroke-width:3.95px;}.cls-2{fill:#0a0a0a;}</style></defs><g id="Layer_2" data-name="Layer 2"><g id="Layer_3" data-name="Layer 3"><path class="cls-1" d="M58.85,144.47H24.36a5.48,5.48,0,0,1-5.46-5L10.33,68.89h61.6l-7.61,70.52A5.49,5.49,0,0,1,58.85,144.47Z"/><rect class="cls-1" x="1.98" y="57.51" width="78.31" height="10.92"/><path class="cls-1" d="M7.43,55.81a33.7,33.7,0,0,1,67.39,0"/><line class="cls-1" x1="49.19" y1="1.98" x2="45.24" y2="22.31"/><path class="cls-1" d="M16.44,108.14,24.11,105A13.18,13.18,0,0,1,39,108.43h0a13.16,13.16,0,0,0,14.88,3.49l13.34-5.47"/><circle class="cls-2" cx="25.94" cy="117.83" r="1.41"/><circle class="cls-2" cx="33.66" cy="129.03" r="1.41"/><circle class="cls-2" cx="40.24" cy="133.18" r="2.06"/><circle class="cls-2" cx="44.02" cy="121.13" r="1.41"/><circle class="cls-2" cx="51.37" cy="128.94" r="1.41"/></g></g></svg>
